<svg xmlns="http://www.w3.org/2000/svg" viewBox="0 0 107.82 105.24"><defs><style>.cls-1{fill:#e6c451;}</style></defs><g id="Layer_2" data-name="Layer 2"><g id="Layer_1-2" data-name="Layer 1"><path class="cls-1" d="M107.82,71.1c-2.78,4.22-4.85,8.84-7.33,13.22-1.52,2.68-3,5.38-4.34,8.16a11.36,11.36,0,0,1-6.57,5.83,29.62,29.62,0,0,1-8.8,1.86c-3.56.25-7.14.43-10.7.41-2,0-2.81.67-2.59,2.67.07.65.34,1.65-.36,1.92-.91.36-1.19-.75-1.61-1.31-3.79-5-7.5-10-11.32-14.88-1.05-1.36-1.25-2.35-.09-3.82,4-5.07,7.8-10.26,11.71-15.38.34-.46.56-1.39,1.33-1.07s.34,1.13.36,1.73c.1,5.24.09,5.24,5.41,5.24,6.09,0,12.19-.13,18.28,0s12-.79,16.62-5.45Z"/><path class="cls-1" d="M70.37,0c5.28,2.41,8.74,6.62,11.56,11.5,1.57,2.73,3.26,5.39,4.78,8.15.68,1.25,1.32,1.62,2.57.77a20.81,20.81,0,0,1,2.58-1.31c.59.94,0,1.5-.27,2.09-2.65,5.87-5.35,11.71-8,17.59-.55,1.23-1.14,2-2.65,1.71-6.63-1.06-13.27-2-19.91-3.06a1.59,1.59,0,0,1-1.34-.73A15.1,15.1,0,0,1,64.08,34c1.26-.62,1.6-1.21.85-2.57-3.84-7-7.52-14.08-11.4-21.06C51.08,6,48,2.13,42.75.74c-.37-.09-.66-.48-1-.74Z"/><path class="cls-1" d="M5.25,38.73c4.21-.47,8-.92,11.8-1.32,3.41-.35,6.82-.62,10.23-1a1.75,1.75,0,0,1,2.15,1.15c2.58,6.59,5.2,13.15,7.8,19.73a3.83,3.83,0,0,1,.08,1,16.32,16.32,0,0,1-4.67-2.52c-1.26-.8-2-.81-2.82.6-4.15,7-8.49,13.85-12.59,20.86-2.53,4.3-4,8.93-2.63,14.07-1,0-1.06-.78-1.34-1.26C9.58,83.81,6.12,77.47,2.2,71.42-.48,67.28-.45,63.16.89,58.78s4-8.33,6.13-12.4c.1-.19.21-.37.31-.55C9.47,42.1,9.47,42.1,6,39.62A8.21,8.21,0,0,1,5.25,38.73Z"/><path class="cls-1" d="M44.51,87.12c0,3.71,0,7.42,0,11.12,0,1.6-.79,2-2.24,2-4-.13-8,0-12-.31-9.9-.79-14.83-8.87-10.88-18,0-.13.11-.25.17-.38,3.1-6.86,3.16-6.82,10.66-6.46,4.05.2,8.12.17,12.18.13,1.78,0,2.52.57,2.44,2.44-.12,3.15,0,6.3,0,9.45Z"/><path class="cls-1" d="M37.72,2.49a13.53,13.53,0,0,1,8.45,3.85,26.48,26.48,0,0,1,5.36,8.22,2.26,2.26,0,0,1-.24,2.36C48.11,22,44.93,27.15,41.81,32.3c-.77,1.27-1.48,1.34-2.69.59q-8.92-5.55-17.93-11c-1.14-.69-1.36-1.35-.62-2.53,2.21-3.49,4.16-7.15,6.5-10.55A14.35,14.35,0,0,1,37.72,2.49Z"/><path class="cls-1" d="M91.48,72c-2.36.51-3.92-.67-5.18-3-2.52-4.76-5.3-9.38-8-14-.72-1.23-.66-1.92.65-2.67,6-3.42,12-6.88,18-10.43,1.47-.87,2.22-.54,3,.83,1.92,3.42,4,6.74,5.89,10.18,4.7,8.56.23,17.46-9.39,18.8A21.57,21.57,0,0,1,91.48,72Z"/></g></g></svg>