<svg xmlns="http://www.w3.org/2000/svg" viewBox="0 0 148.11 108.95"><defs><style>.cls-1{fill:#e6c451;}</style></defs><g id="Layer_2" data-name="Layer 2"><g id="Layer_1-2" data-name="Layer 1"><path class="cls-1" d="M148.11,107.78a2.46,2.46,0,0,1-2.28,1c-6.17,0-12.35,0-18.52,0-2,0-2.56-.71-2-2.64,1-3.32,2-6.63,3-9.95a1.85,1.85,0,0,1,2-1.51c4.17,0,8.34,0,12.51,0A2,2,0,0,1,145,96.4c1,3.47,2.1,6.94,3.16,10.4Z"/><path class="cls-1" d="M74.94,106.8c1-3.41,2.12-6.82,3.11-10.25a2.25,2.25,0,0,1,2.53-1.93c4,.07,7.9.06,11.85,0a2.16,2.16,0,0,1,2.43,1.83c.92,3.29,2,6.54,2.9,9.81.49,1.67,0,2.45-1.69,2.46-6.39,0-12.78,0-19.17,0a2.22,2.22,0,0,1-2-1Z"/><path class="cls-1" d="M111.38,108.75c-3,0-6.07,0-9.1,0-2.06,0-2.57-.7-2-2.63,1-3.33,2-6.64,3-10a1.86,1.86,0,0,1,2-1.5q6.27,0,12.52,0a1.86,1.86,0,0,1,2,1.48c1,3.37,2,6.74,3,10.12.51,1.76,0,2.46-1.84,2.49-3.19.06-6.39,0-9.59,0Z"/><path class="cls-1" d="M97.87,92.62c-3.19,0-6.38,0-9.57,0-1.79,0-2.25-.62-1.75-2.33,1-3.27,2-6.52,2.92-9.8a2.15,2.15,0,0,1,2.45-1.78c4,.07,8,.06,12,0a2,2,0,0,1,2.26,1.59c.94,3.27,2,6.52,2.91,9.79.58,2,.16,2.52-2,2.53Z"/><path class="cls-1" d="M111.55,76.69c-3.19,0-6.38,0-9.58,0-1.78,0-2.24-.62-1.74-2.34,1-3.27,2-6.52,2.92-9.79a2.16,2.16,0,0,1,2.45-1.79c4,.07,8,.06,12,0a2,2,0,0,1,2.26,1.59c.94,3.28,2,6.53,2.91,9.8.58,2,.16,2.52-2,2.52C117.72,76.7,114.63,76.69,111.55,76.69Z"/><path class="cls-1" d="M125.23,92.62c-3.19,0-6.38,0-9.58,0-1.8,0-2.25-.58-1.75-2.31,1-3.38,2-6.73,3-10.11a1.83,1.83,0,0,1,2-1.48c4.22,0,8.44,0,12.66,0a1.73,1.73,0,0,1,1.88,1.41c1,3.48,2.11,6.94,3.11,10.42.41,1.41-.09,2-1.59,2.06C131.72,92.64,128.48,92.62,125.23,92.62Z"/><path class="cls-1" d="M35.08,109H1.75C0,109,0,108.94,0,107.24c0-1.92,0-3.85,0-5.77a2.91,2.91,0,0,1,.69-2q5-6.18,9.93-12.4a2.33,2.33,0,0,1,2.05-1c3.93,0,7.86,0,11.79,0,1.07,0,1.38-.34,1.37-1.38,0-5,0-10.11,0-15.16a2.11,2.11,0,0,0-1-1.88A16.48,16.48,0,0,1,18,54.2,17,17,0,0,1,31.82,37.33a15.87,15.87,0,0,1,6.44,0,1.76,1.76,0,0,0,1.88-.62Q50.33,26,60.55,15.3a3.41,3.41,0,0,1,.42-.43c.32-.28.54-.86,1-.78s.39.73.48,1.12a13.8,13.8,0,0,0,6.07,8.64c1,.68.93,1.09.17,1.88-6,6.21-11.91,12.47-17.9,18.67a1.72,1.72,0,0,0-.36,2.29,16.93,16.93,0,0,1-5.36,21.23,1.87,1.87,0,0,0-.86,1.7c0,5.09,0,10.19,0,15.28,0,1,.38,1.28,1.34,1.28,7.62,0,15.24,0,22.86,0,1.75,0,1.76,0,1.77,1.71v19.49c0,1.56,0,1.59-1.64,1.59Zm7.34-54.77a7.42,7.42,0,0,0-7.37-7.55,7.53,7.53,0,0,0-7.44,7.44A7.41,7.41,0,0,0,35,61.51,7.28,7.28,0,0,0,42.42,54.18Z"/><path class="cls-1" d="M88.26,11.94a12,12,0,0,1-11.87,12,12.17,12.17,0,0,1-12.06-12A12,12,0,0,1,76.4,0,11.81,11.81,0,0,1,88.26,11.94Zm-7.58,0a4.24,4.24,0,0,0-4.24-4.4,4.48,4.48,0,0,0-4.53,4.33,4.53,4.53,0,0,0,4.45,4.45A4.34,4.34,0,0,0,80.68,12Z"/><path class="cls-1" d="M89.16,17.75a5.74,5.74,0,0,1,.68,1.75c1.31,4.17,2.65,8.33,3.9,12.52A4,4,0,0,0,96.8,34.9c4.06,1.1,8.11,2.25,12.18,3.33a3.51,3.51,0,0,1,2.53,2.26,13.12,13.12,0,0,0,1.73,3.13c1,1.29,1.36,2.09.08,2.68a30.29,30.29,0,0,0-3,1.71c-.7.42-1.28.35-1.56-.42-1.06-3-3.31-4.25-6.28-4.83-2.43-.47-4.79-1.32-7.19-2a2.69,2.69,0,0,0-3.46,1.93c-1,3.39-1.86,6.81-2.84,10.2-.45,1.55.42,2.67,1.09,3.9.19.34.39.66.59,1,.44.76.19,1.26-.67,1.66A17.81,17.81,0,0,0,87.2,61c-1.06.76-1.72.36-2.16-1.14a9.39,9.39,0,0,0-2.13-3.79,2.44,2.44,0,0,1-.47-2.61c1.19-4.21,2.33-8.42,3.53-12.62a3.79,3.79,0,0,0-.81-3.81c-2.55-2.88-5.12-5.74-7.64-8.64-1.19-1.37-1.14-1.45.52-2.05L80,25.68a18.56,18.56,0,0,0,5.21-2.83,10.43,10.43,0,0,0,3.32-4.1c.13-.29.26-.59.41-.87C88.93,17.83,89,17.81,89.16,17.75Z"/></g></g></svg>