<svg xmlns="http://www.w3.org/2000/svg" viewBox="0 0 104.14 123.23"><defs><style>.cls-1{fill:#e6c451;}</style></defs><g id="Layer_2" data-name="Layer 2"><g id="Layer_1-2" data-name="Layer 1"><path class="cls-1" d="M29.69,123.23a8,8,0,0,1-2-3.26c-1.21-3.23-2.42-6.46-3.68-9.67a5.85,5.85,0,0,0-8-3.44c-3.83,1.55-7.63,3.17-11.45,4.74a13.2,13.2,0,0,1-2.27.77c-1.63.33-2.55-.59-2.33-2.24A6.91,6.91,0,0,1,.7,108.2Q10,88.46,19.35,68.72c.29-.6.33-1.69,1.17-1.61a4,4,0,0,1,3,1.26c.79,1,1.54,2.06,2.27,3.11A18.74,18.74,0,0,0,36,78.57a10.63,10.63,0,0,0,6.17-.09c1.54-.43,3.08-.92,4.58-1.47a6.59,6.59,0,0,1,4.69,0c1.25.45,2.52.81,3.77,1.25C60,80,64,78.31,67.69,75.42a27.13,27.13,0,0,0,5.45-6.21,3.57,3.57,0,0,1,2.08-1.48,22.5,22.5,0,0,0,6.6-2.85c.89-.6,1.38-.49,1.88.59q9.84,21.41,19.79,42.79a6.59,6.59,0,0,1,.63,1.94c.17,1.61-.72,2.47-2.31,2.13a12.85,12.85,0,0,1-2.27-.75q-5.28-2.22-10.52-4.46c-4-1.7-7.22-.33-8.76,3.72-1.25,3.3-2.52,6.59-3.77,9.89a5,5,0,0,1-1.8,2.5H73.25a5.1,5.1,0,0,1-1.94-2.39q-7.89-17.16-15.78-34.3c-1-2.28-2.11-4.55-3.27-7.05l-3,6.43L33.34,120.55a6.32,6.32,0,0,1-2,2.68Z"/><path class="cls-1" d="M61,0a11,11,0,0,1,4.94,4.77,12.63,12.63,0,0,0,8.53,6.3,16.91,16.91,0,0,1,2,.67c3.77,1.38,5.15,3.3,5.22,7.3,0,1.4,0,2.81,0,4.21a9.67,9.67,0,0,0,2.07,6.27q1.27,1.74,2.54,3.5a6.81,6.81,0,0,1,0,8.59c-.9,1.27-1.81,2.55-2.73,3.81a9.57,9.57,0,0,0-1.9,6,33.4,33.4,0,0,1-.19,6.24A4.89,4.89,0,0,1,77.91,62c-2.48.76-5,1.34-7.22,2.89A14.25,14.25,0,0,0,67,68.4c-.59.86-1.28,1.66-1.81,2.55-1.8,3.08-4.64,3.49-7.81,3.16-1.92-.21-3.57-1.19-5.35-1.8a8.39,8.39,0,0,0-5.53-.07,43,43,0,0,1-6.34,1.83c-2.9.49-5.35,0-7-2.75-.13-.21-.32-.37-.43-.58-2.4-4.63-6.54-6.83-11.34-8.18-3.58-1-4.94-2.87-5-6.63,0-1.41-.06-2.81,0-4.21a10.15,10.15,0,0,0-2.24-6.82A29.71,29.71,0,0,1,11,40.24a6.16,6.16,0,0,1,0-5.88,30.43,30.43,0,0,1,3.13-4.56,10.8,10.8,0,0,0,2.29-7.17,31.19,31.19,0,0,1,.11-5.29,6.22,6.22,0,0,1,4.3-5.3c1.5-.57,3-1.06,4.56-1.52a9.94,9.94,0,0,0,5.68-4.2c.64-1,1.36-1.89,2-2.85A9.64,9.64,0,0,1,37.15,0h3.37l5.71,1.84a8.85,8.85,0,0,0,5.55,0L57.61,0ZM49,59.43A22.11,22.11,0,1,0,26.87,37.27,22.13,22.13,0,0,0,49,59.43Z"/><path class="cls-1" d="M49.11,19.4A18,18,0,1,0,67,37.52,17.94,17.94,0,0,0,49.11,19.4ZM60,43.92H38.11V30.21l5.52,7.43,5.53-7.43,5.52,7.43L60,30.21Z"/></g></g></svg>