<svg xmlns="http://www.w3.org/2000/svg" viewBox="0 0 91.97 89.53"><defs><style>.cls-1{fill:#e6c451;}</style></defs><g id="Layer_2" data-name="Layer 2"><g id="Layer_1-2" data-name="Layer 1"><path class="cls-1" d="M39.36,28.69H18.91a5.81,5.81,0,0,1-1.9-.2,3.21,3.21,0,0,1-2.24-3.21,3,3,0,0,1,2.63-2.86c1-.1,1.17-.55,1.26-1.44a20.56,20.56,0,0,1,10-16.27c1.41-.88,1.53-.82,1.81.76.44,2.4.85,4.81,1.27,7.22,0,.19.06.39.1.59.18,1,.61,1.69,1.74,1.56.88-.1,1.29-.91,1.09-2.06-.31-1.86-.65-3.71-1-5.57-.25-1.38-.44-2.77-.75-4.13a1.85,1.85,0,0,1,.74-2A4.72,4.72,0,0,1,36.79,0c1.76,0,3.53,0,5.29,0a4.63,4.63,0,0,1,2.3.61c1.34.78,1.59,1.31,1.32,2.84Q44.92,8,44.11,12.56c-.23,1.36.12,2.13,1.07,2.29S46.71,14.41,47,13c.45-2.53.87-5.06,1.32-7.58.28-1.55.41-1.62,1.72-.81A20.56,20.56,0,0,1,60.06,21c.09.89.23,1.34,1.27,1.42A3.06,3.06,0,0,1,64,25.28a3.2,3.2,0,0,1-2.12,3.17,5.78,5.78,0,0,1-2,.24Z"/><path class="cls-1" d="M21.06,34.67a6.47,6.47,0,0,0,.77,3.67c.38.66.72,1.33,1.68,1.32.69,0,.67.73.84,1.17a26.8,26.8,0,0,0,5.43,9,13.46,13.46,0,0,0,7.84,4.58c3.71.55,6.75-.91,9.42-3.29a26,26,0,0,0,6.79-10.36c.23-.61.39-1.2,1.27-1.16.45,0,.74-.43,1-.83a8.41,8.41,0,0,0,1.15-5.42c-.15-1,.17-1.28,1.1-1.31,2.89-.1,3-.05,2.54,2.83-.38,2.43-1,4.81-3.06,6.45-.46.36-.53,1-.75,1.48-2.2,5.09-5.17,9.63-9.76,12.87-5.88,4.16-12,3.8-17.56-.83a31.39,31.39,0,0,1-8.64-12.13,4.13,4.13,0,0,0-1.32-1.78,7,7,0,0,1-2.17-3.8,16.18,16.18,0,0,1-.65-3.78c-.07-.9.24-1.39,1.21-1.3a4,4,0,0,0,.49,0C21.55,32,21.08,32,21.06,34.67Z"/><path class="cls-1" d="M65.58,86.8c-10.89-.44-21.93.1-32.83.1l-11.89,0c-3.53,0-7.23.43-10.72.06C4.56,86.39-1.54,81.63.35,75.44A36,36,0,0,1,3.76,67.5,15.59,15.59,0,0,1,16.4,59.42l6.39-.52c.77-.29,1.38.15,2,1.05a7.54,7.54,0,0,0,3.87,2.75,30.39,30.39,0,0,0,21.52,0,7.85,7.85,0,0,0,4.28-3.35.83.83,0,0,1,.88-.48l.73.08a58.57,58.57,0,0,0,.44,6.88,41.89,41.89,0,0,0,3.44,12.53A30.93,30.93,0,0,0,65.58,86.8Z"/><path class="cls-1" d="M92,59.66c0-.31-.12-.42-.42-.42a24.89,24.89,0,0,1-3-.09,7.66,7.66,0,0,1-3.8-1.51,19.59,19.59,0,0,1-2.53-2.7,8.65,8.65,0,0,0-4.86-3.1l-.89-.17H74l-.19,0a8,8,0,0,0-4.26,1.79A19.22,19.22,0,0,0,67,56.18,7.81,7.81,0,0,1,62.45,59a21,21,0,0,1-3.54.21c-.48,0-.51,0-.51.52a52.78,52.78,0,0,0,.37,6.88A34.7,34.7,0,0,0,61.6,77a24.51,24.51,0,0,0,6.7,8.85,19.64,19.64,0,0,0,6.33,3.61,1.67,1.67,0,0,0,1.08,0c2.92-1,5.22-3,7.33-5.17A32.68,32.68,0,0,0,89,76.17,21.79,21.79,0,0,0,90.82,71v0A45.43,45.43,0,0,0,92,59.66Zm-16.7-4.57V86c0,.52,0,.54-.5.33a18.84,18.84,0,0,1-7.66-6,26.16,26.16,0,0,1-4.87-11,35.68,35.68,0,0,1-.74-6.09c0-.9,0-.92.88-1a10.66,10.66,0,0,0,6.9-4,25.25,25.25,0,0,1,1.76-2,5.66,5.66,0,0,1,3.86-1.54C75.29,54.59,75.26,54.83,75.26,55.09Z"/></g></g></svg>