<svg xmlns="http://www.w3.org/2000/svg" viewBox="0 0 101.72 102.56"><defs><style>.cls-1{fill:#e6c451;}</style></defs><g id="Layer_2" data-name="Layer 2"><g id="Layer_1-2" data-name="Layer 1"><path class="cls-1" d="M0,96.55C.46,94.27,1,92,1.38,89.7c1.42-7.78,6-12.44,13.69-14.24,4.61-1.07,9.25-2,13.78-3.38a25.71,25.71,0,0,0,6-2.49,2.41,2.41,0,0,0,1.07-1.26c.82-2.15,1.51-4.34,2.17-6.55a1.23,1.23,0,0,0-.18-1.22C35,56.82,32.67,52.68,30.11,48.7a2.33,2.33,0,0,0-1.52-1.18,4.33,4.33,0,0,1-2.41-1.7,16.68,16.68,0,0,1-3.8-10.71,4.08,4.08,0,0,1,1.9-3.85c.42-.24.32-.6.32-1,0-3-.13-6,.1-9A20.08,20.08,0,0,1,29.57,10,26.87,26.87,0,0,1,48,.24c7.24-.84,14.06.47,20.1,4.68A22.54,22.54,0,0,1,78.3,24.15q0,2.85,0,5.7A1.9,1.9,0,0,1,76.49,32a1.87,1.87,0,0,1-1.84-2c-.05-1.8,0-3.6,0-5.4.07-8.59-4-14.82-11.56-18.32-9.83-4.53-19.38-3.59-28,3.28a17.15,17.15,0,0,0-6.72,11.67,70.29,70.29,0,0,0-.08,8.59c0,.72.7,1.08,1.11,1.74a2.19,2.19,0,0,0,.15-1.17c.06-3-.27-5.94.28-8.88,1.09-5.86,4.68-9.81,9.75-12.59,9.19-5.06,21.23-2.79,28,3.08a17.83,17.83,0,0,1,6,12.17c.39,3.74,0,7.46-.09,11.19a1.31,1.31,0,0,0,.73,1.43c1.46.8,2,2.46,1.66,4.46a14.81,14.81,0,0,1-1.88,5c-2.28,3.68-4.52,7.39-6.8,11.08A29.6,29.6,0,0,1,63,62.7a.93.93,0,0,0-.14,1.38,38.06,38.06,0,0,1,2.07,3.31,7.17,7.17,0,0,0,3.64,3.12,62.54,62.54,0,0,0,11.28,3.37c2.73.64,5.46,1.25,8.16,2,6.4,1.77,10.42,5.84,11.91,12.32.66,2.89,1.22,5.8,1.77,8.71A5,5,0,0,1,98.75,102c-.43.19-.87.35-1.3.53H4.2a5.83,5.83,0,0,1-4.2-4ZM34,49.43c2.22,3.58,4.23,7.28,7,10.47,3.42,3.91,7.64,5.69,12.85,4.77a13.8,13.8,0,0,0,8.53-5.54c3.69-4.75,6.51-10.07,9.6-15.21A7.28,7.28,0,0,0,73,40.2c0-.78-.36-1.2-1.13-1.22s-1.6,0-2.4,0c-1.23,0-1.34-.16-1.07-1.35.43-1.92.87-3.83,1.32-5.75.14-.58.08-.82-.65-.72A29,29,0,0,1,60,30.61c-4.22-.82-8.31-2.2-12.55-2.94a25.22,25.22,0,0,0-13.2,1c-.61.22-.9.46-.8,1.21.32,2.37.53,4.76.8,7.14.14,1.21,0,1.38-1.18,1.25-.76-.09-.78.2-.58.79a36.83,36.83,0,0,1,2,6.07,1.67,1.67,0,0,0,.62.88,26.41,26.41,0,0,0,9.78,6.26c.58.21,1,.22,1.34-.36a2.8,2.8,0,0,1,1.9-1.2,9.29,9.29,0,0,1,4.26,0,2.71,2.71,0,0,1,2.31,2.94,2.68,2.68,0,0,1-2.5,2.77,6.2,6.2,0,0,1-1.48.15A26.14,26.14,0,0,1,40.57,54,47.52,47.52,0,0,1,34,49.43ZM57.68,91.76A42.45,42.45,0,0,0,65,72.49a1.68,1.68,0,0,0-.33-1.3,49.76,49.76,0,0,1-3.48-5.37c-.49-.86-.87-.87-1.68-.39a15.53,15.53,0,0,1-14.57,1,17.49,17.49,0,0,1-4.79-3.29,5.63,5.63,0,0,0-.25.52A44.78,44.78,0,0,1,37,71.41a1.82,1.82,0,0,0,0,1.26c1.89,10.22,6.15,20.18,15.68,25.38.12.11,4.57-5.65,5-6.22Z"/></g></g></svg>